<svg xmlns="http://www.w3.org/2000/svg" x="0px" y="0px" width="100" height="100" viewBox="0,0,241.28906,256">
<g fill="#000" fill-rule="nonzero" stroke="none" stroke-width="1" stroke-linecap="butt" stroke-linejoin="miter" stroke-miterlimit="10" stroke-dasharray="" stroke-dashoffset="0" font-family="none" font-weight="none" font-size="none" text-anchor="none" style="mix-blend-mode: normal"><g transform="scale(8.88026,8.88026)"><path d="M13.58594,0l-0.70703,0.70703l-12.29297,12.29297c-0.7724,0.77263 -0.7724,2.05549 0,2.82813l13,13l0.70703,-0.70703l12.29297,-12.29297c0.7724,-0.77263 0.7724,-2.05549 0,-2.82812zM13.63867,2.88086l11.5332,11.5332l-8.8457,8.8457c-0.02341,-0.59902 -0.12511,-1.16439 -0.29102,-1.66211c-0.2957,-0.8871 -0.73649,-1.61294 -1.10156,-2.11719l5.06641,-5.06641l-5.70703,-5.70703c0,0 -0.84214,-0.86236 -1.25781,-2.10937c-0.35436,-1.06308 -0.46237,-2.28645 0.60352,-3.7168zM10.8457,5.56836c0.02341,0.59902 0.12511,1.16439 0.29102,1.66211c0.2957,0.8871 0.73649,1.61294 1.10156,2.11719l-5.06641,5.06641l0.70703,0.70703l5,5c0,0 0.84214,0.86236 1.25781,2.10938c0.35436,1.06308 0.46237,2.28645 -0.60352,3.7168l-11.5332,-11.5332zM13.58594,10.82813l3.58594,3.58594l-3.58594,3.58594l-3.58594,-3.58594z"></path></g></g>
</svg>